<svg width="512" height="512" xmlns="http://www.w3.org/2000/svg">
 <!-- Created with UXWing SVG Editor - https://uxwing.com/svg-icon-editor/ -->

 <g>
  <title>background</title>
  <rect fill="none" id="canvas_background" height="514" width="514" y="-1" x="-1"/>
  <g display="none" overflow="visible" y="0" x="0" height="100%" width="100%" id="canvasGrid">
   <rect fill="url(#gridpattern)" stroke-width="0" y="0" x="0" height="100%" width="100%"/>
  </g>
 </g>
 <g>
  <title>Layer 1</title>
  <!-- Created with UXWing SVG Editor - https://uxwing.com/svg-icon-editor/ -->
  <path id="svg_25" d="m-94,-108c0,0 55,-1 56,-1" opacity="0.5" stroke-width="0" stroke="#FF0000" fill="#000"/>
  <!-- Created with UXWing SVG Editor - https://uxwing.com/svg-icon-editor/ -->
  <!-- Created with UXWing SVG Editor - https://uxwing.com/svg-icon-editor/ -->
  <g id="svg_67">
   <g transform="matrix(1.9290121985070527,0,0,1.9290121985070527,0,0) " id="svg_65">
    <path fill="#00cccc" id="svg_66" d="m77.365398,0l93.94,0c1.67,0 3.2,0.69 4.3,1.79c1.1,1.1 1.79,2.63 1.79,4.3l0,64.56c0,1.26 -0.39,2.44 -1.05,3.41c-0.12,0.31 -0.31,0.61 -0.57,0.86c-0.17,0.16 -0.36,0.3 -0.57,0.4c-1.06,0.88 -2.42,1.42 -3.89,1.42l-93.95,0c-1.67,0 -3.2,-0.68 -4.3,-1.79c-1.1,-1.11 -1.79,-2.63 -1.79,-4.31l0,-64.55c0,-1.68 0.68,-3.2 1.79,-4.3c1.1,-1.11 2.62,-1.79 4.3,-1.79l0,0l0,0zm110.7,95.02l-98.36,0c-1.67,0 -3.2,-0.69 -4.3,-1.79c-1.1,-1.1 -1.79,-2.63 -1.79,-4.3l0,-6.12l4.62,0l0,7.54l101.36,0l0,-71.81l-6.16,0l0,-4.67l4.62,0c1.67,0 3.2,0.68 4.3,1.79c1.1,1.1 1.79,2.62 1.79,4.3l0,68.98c0,1.68 -0.68,3.2 -1.79,4.3c-1.09,1.1 -2.61,1.78 -4.29,1.78l0,0l0,0zm-112.12,-26.94l32.92,-33l-32.92,-26.84l0,59.84l0,0l0,0zm36.55,-30.05l-33.95,34.03l91.28,0l-32.43,-34.02l-10.69,9.11l0,0c-0.84,0.72 -2.09,0.76 -2.98,0.04l-11.23,-9.16l0,0l0,0zm28.45,-3.01l31.78,33.33l0,-60.41l-31.78,27.08l0,0l0,0zm-62.01,-30.35l46.22,37.68l44.23,-37.68l-90.45,0l0,0l0,0z"/>
   </g>
  </g>
 </g>
</svg>